<?xml version="1.0" encoding="UTF-8" standalone="no"?>
<!-- Created with Inkscape (http://www.inkscape.org/) -->

<svg
   xmlns:dc="http://purl.org/dc/elements/1.1/"
   xmlns:cc="http://creativecommons.org/ns#"
   xmlns:rdf="http://www.w3.org/1999/02/22-rdf-syntax-ns#"
   xmlns:svg="http://www.w3.org/2000/svg"
   xmlns="http://www.w3.org/2000/svg"
   xmlns:xlink="http://www.w3.org/1999/xlink"
   xmlns:sodipodi="http://sodipodi.sourceforge.net/DTD/sodipodi-0.dtd"
   xmlns:inkscape="http://www.inkscape.org/namespaces/inkscape"
   width="5in"
   height="5in"
   viewBox="0 0 449.99999 450"
   id="svg6324"
   version="1.1"
   inkscape:version="0.91 r13725"
   sodipodi:docname="hearts2.svg">
  <defs
     id="defs6326" />
  <sodipodi:namedview
     id="base"
     pagecolor="#ffffff"
     bordercolor="#666666"
     borderopacity="1.0"
     inkscape:pageopacity="0"
     inkscape:pageshadow="2"
     inkscape:zoom="0.92117231"
     inkscape:cx="174.92555"
     inkscape:cy="263.37624"
     inkscape:document-units="px"
     inkscape:current-layer="g10402"
     showgrid="false"
     units="in"
     width="9.5in"
     borderlayer="true"
     showborder="true"
     inkscape:showpageshadow="true"
     inkscape:window-width="1505"
     inkscape:window-height="814"
     inkscape:window-x="365"
     inkscape:window-y="119"
     inkscape:window-maximized="0"
     showguides="true"
     inkscape:guide-bbox="true"
     inkscape:snap-center="true" />
  <metadata
     id="metadata6329">
    <rdf:RDF>
      <cc:Work
         rdf:about="">
        <dc:format>image/svg+xml</dc:format>
        <dc:type
           rdf:resource="http://purl.org/dc/dcmitype/StillImage" />
        <dc:title></dc:title>
      </cc:Work>
    </rdf:RDF>
  </metadata>
  <g
     inkscape:label="Layer 1"
     inkscape:groupmode="layer"
     id="layer1"
     transform="translate(0,-602.36221)" />
  <g
     inkscape:groupmode="layer"
     id="layer3"
     inkscape:label="Layer 2"
     style="display:inline">
    <path
       style="opacity:1;fill:none;fill-opacity:1;stroke:#000000;stroke-width:1.16167545;stroke-linejoin:miter;stroke-miterlimit:4.9000001;stroke-dasharray:none;stroke-dashoffset:0;stroke-opacity:1"
       d=""
       id="path8004"
       inkscape:connector-curvature="0" />
    <g
       id="g10402"
       transform="matrix(0.93842901,0,0,0.8931927,41.68938,67.719379)">
      <g
         transform="translate(-143.57397,-721.12146)"
         id="g6424-1-5-4-9">
        <path
           style="opacity:1;fill:none;fill-opacity:1;stroke:#000000;stroke-width:2.28711438;stroke-linejoin:miter;stroke-miterlimit:4.9000001;stroke-dasharray:none;stroke-dashoffset:0;stroke-opacity:1"
           d="m 88.325152,680.56427 c -0.191584,-1.61662 -0.219479,-10.41524 -0.06199,-19.55249 0.22119,-12.8328 0.45588,-17.19478 1.031362,-19.16906 1.884928,-6.46654 7.910908,-11.21145 14.210436,-11.18946 7.35064,0.0257 13.10845,5.45771 14.55554,13.73198 0.28977,1.65692 0.52687,3.85803 0.52687,4.89135 l 0,1.87877 4.00852,0.26433 c 6.08724,0.40143 10.93643,3.38627 13.75222,8.46497 1.02747,1.8532 1.32266,3.14517 1.49039,6.523 0.18292,3.6839 0.0582,4.56075 -0.99495,6.99216 -1.53662,3.54771 -4.15992,6.31325 -7.5403,7.94909 -3.3963,1.64351 -8.96399,2.07717 -27.24455,2.12187 l -13.38522,0.0326 -0.348325,-2.9393 z"
           id="path16078"
           inkscape:connector-curvature="0"
           inkscape:tile-cx="54.348302"
           inkscape:tile-cy="55.029814"
           inkscape:tile-w="107.56283"
           inkscape:tile-h="107.88244"
           inkscape:tile-x0="0.55684713"
           inkscape:tile-y0="1.0910159" />
        <use
           x="0"
           y="0"
           inkscape:tiled-clone-of="#path16078"
           xlink:href="#path16078"
           id="use16252"
           inkscape:tile-cx="54.348302"
           inkscape:tile-cy="55.029814"
           inkscape:tile-w="107.56283"
           inkscape:tile-h="107.88244"
           inkscape:tile-x0="0.55684713"
           inkscape:tile-y0="1.0910159"
           width="100%"
           height="100%"
           transform="translate(3.2116088e-6,-3.9332423e-6)" />
        <use
           x="0"
           y="0"
           inkscape:tiled-clone-of="#use16252"
           xlink:href="#use16252"
           id="use16284"
           width="100%"
           height="100%"
           transform="translate(3.2116088e-6,-3.9332423e-6)" />
      </g>
      <path
         style="opacity:1;fill:#ffffff;fill-opacity:1;stroke:#000000;stroke-width:4.99363661;stroke-linejoin:miter;stroke-miterlimit:4.9000001;stroke-dasharray:none;stroke-dashoffset:0;stroke-opacity:1"
         d="M -8.3677632,32.40133 C -9.3116934,31.4574 -9.1797502,13.09331 -8.1555312,2.8625067 -7.4380642,-4.3041855 -6.9869836,-5.473541 -3.8632254,-8.2646187 4.0253897,-15.313095 14.95783,-10.147545 16.482883,1.3488648 l 0.7256,5.4698475 5.355516,0.5145975 c 7.742606,0.7439661 11.767451,4.8022642 11.767451,11.8652592 0,4.193096 -0.603455,5.883021 -3.097529,8.674375 -3.009791,3.368541 -3.432588,3.490076 -14.926632,4.290754 -15.2603073,1.063037 -23.7677171,1.144967 -24.6750522,0.237632 z"
         id="path16484"
         inkscape:connector-curvature="0"
         transform="matrix(1.0656107,0,0,1.1195792,-44.42465,-75.817211)"
         inkscape:tile-cx="12.663059"
         inkscape:tile-cy="10.776237"
         inkscape:tile-w="48.330495"
         inkscape:tile-h="49.459424"
         inkscape:tile-x0="-11.502227"
         inkscape:tile-y0="-13.936132" />
      <use
         x="0"
         y="0"
         inkscape:tiled-clone-of="#path16484"
         xlink:href="#path16484"
         id="use17486" />
      <use
         x="0"
         y="0"
         inkscape:tiled-clone-of="#path16484"
         xlink:href="#path16484"
         transform="translate(0,53.317259)"
         id="use17488" />
      <use
         x="0"
         y="0"
         inkscape:tiled-clone-of="#path16484"
         xlink:href="#path16484"
         transform="translate(0,106.63452)"
         id="use17490" />
      <use
         x="0"
         y="0"
         inkscape:tiled-clone-of="#path16484"
         xlink:href="#path16484"
         transform="translate(0,159.95178)"
         id="use17492" />
      <use
         x="0"
         y="0"
         inkscape:tiled-clone-of="#path16484"
         xlink:href="#path16484"
         transform="translate(0,213.26904)"
         id="use17494" />
      <use
         x="0"
         y="0"
         inkscape:tiled-clone-of="#path16484"
         xlink:href="#path16484"
         transform="translate(0,266.5863)"
         id="use17496" />
      <use
         x="0"
         y="0"
         inkscape:tiled-clone-of="#path16484"
         xlink:href="#path16484"
         transform="translate(0,319.90355)"
         id="use17498" />
      <use
         x="0"
         y="0"
         inkscape:tiled-clone-of="#path16484"
         xlink:href="#path16484"
         transform="translate(0,373.22081)"
         id="use17500" />
      <use
         x="0"
         y="0"
         inkscape:tiled-clone-of="#path16484"
         xlink:href="#path16484"
         transform="translate(0,426.53807)"
         id="use17502" />
      <use
         x="0"
         y="0"
         inkscape:tiled-clone-of="#path16484"
         xlink:href="#path16484"
         transform="translate(0,479.85533)"
         id="use17504" />
      <use
         x="0"
         y="0"
         inkscape:tiled-clone-of="#path16484"
         xlink:href="#path16484"
         transform="translate(50.215384,0)"
         id="use17506" />
      <use
         x="0"
         y="0"
         inkscape:tiled-clone-of="#path16484"
         xlink:href="#path16484"
         transform="translate(50.215384,53.317259)"
         id="use17508" />
      <use
         x="0"
         y="0"
         inkscape:tiled-clone-of="#path16484"
         xlink:href="#path16484"
         transform="translate(50.215384,106.63452)"
         id="use17510" />
      <use
         x="0"
         y="0"
         inkscape:tiled-clone-of="#path16484"
         xlink:href="#path16484"
         transform="translate(50.215384,159.95178)"
         id="use17512" />
      <use
         x="0"
         y="0"
         inkscape:tiled-clone-of="#path16484"
         xlink:href="#path16484"
         transform="translate(50.215384,213.26904)"
         id="use17514" />
      <use
         x="0"
         y="0"
         inkscape:tiled-clone-of="#path16484"
         xlink:href="#path16484"
         transform="translate(50.215384,266.5863)"
         id="use17516" />
      <use
         x="0"
         y="0"
         inkscape:tiled-clone-of="#path16484"
         xlink:href="#path16484"
         transform="translate(50.215384,319.90355)"
         id="use17518" />
      <use
         x="0"
         y="0"
         inkscape:tiled-clone-of="#path16484"
         xlink:href="#path16484"
         transform="translate(50.215384,373.22081)"
         id="use17520" />
      <use
         x="0"
         y="0"
         inkscape:tiled-clone-of="#path16484"
         xlink:href="#path16484"
         transform="translate(50.215384,426.53807)"
         id="use17522" />
      <use
         x="0"
         y="0"
         inkscape:tiled-clone-of="#path16484"
         xlink:href="#path16484"
         transform="translate(50.215384,479.85533)"
         id="use17524" />
      <use
         x="0"
         y="0"
         inkscape:tiled-clone-of="#path16484"
         xlink:href="#path16484"
         transform="translate(100.43077,0)"
         id="use17526" />
      <use
         x="0"
         y="0"
         inkscape:tiled-clone-of="#path16484"
         xlink:href="#path16484"
         transform="translate(100.43077,53.317259)"
         id="use17528" />
      <use
         x="0"
         y="0"
         inkscape:tiled-clone-of="#path16484"
         xlink:href="#path16484"
         transform="translate(100.43077,106.63452)"
         id="use17530" />
      <use
         x="0"
         y="0"
         inkscape:tiled-clone-of="#path16484"
         xlink:href="#path16484"
         transform="translate(100.43077,159.95178)"
         id="use17532" />
      <use
         x="0"
         y="0"
         inkscape:tiled-clone-of="#path16484"
         xlink:href="#path16484"
         transform="translate(100.43077,213.26904)"
         id="use17534" />
      <use
         x="0"
         y="0"
         inkscape:tiled-clone-of="#path16484"
         xlink:href="#path16484"
         transform="translate(100.43077,266.5863)"
         id="use17536" />
      <use
         x="0"
         y="0"
         inkscape:tiled-clone-of="#path16484"
         xlink:href="#path16484"
         transform="translate(100.43077,319.90355)"
         id="use17538" />
      <use
         x="0"
         y="0"
         inkscape:tiled-clone-of="#path16484"
         xlink:href="#path16484"
         transform="translate(100.43077,373.22081)"
         id="use17540" />
      <use
         x="0"
         y="0"
         inkscape:tiled-clone-of="#path16484"
         xlink:href="#path16484"
         transform="translate(100.43077,426.53807)"
         id="use17542" />
      <use
         x="0"
         y="0"
         inkscape:tiled-clone-of="#path16484"
         xlink:href="#path16484"
         transform="translate(100.43077,479.85533)"
         id="use17544" />
      <use
         x="0"
         y="0"
         inkscape:tiled-clone-of="#path16484"
         xlink:href="#path16484"
         transform="translate(150.64615,0)"
         id="use17546" />
      <use
         x="0"
         y="0"
         inkscape:tiled-clone-of="#path16484"
         xlink:href="#path16484"
         transform="translate(150.64615,53.317259)"
         id="use17548" />
      <use
         x="0"
         y="0"
         inkscape:tiled-clone-of="#path16484"
         xlink:href="#path16484"
         transform="translate(150.64615,106.63452)"
         id="use17550" />
      <use
         x="0"
         y="0"
         inkscape:tiled-clone-of="#path16484"
         xlink:href="#path16484"
         transform="translate(150.64615,159.95178)"
         id="use17552" />
      <use
         x="0"
         y="0"
         inkscape:tiled-clone-of="#path16484"
         xlink:href="#path16484"
         transform="translate(150.64615,213.26904)"
         id="use17554" />
      <use
         x="0"
         y="0"
         inkscape:tiled-clone-of="#path16484"
         xlink:href="#path16484"
         transform="translate(150.64615,266.5863)"
         id="use17556" />
      <use
         x="0"
         y="0"
         inkscape:tiled-clone-of="#path16484"
         xlink:href="#path16484"
         transform="translate(150.64615,319.90355)"
         id="use17558" />
      <use
         x="0"
         y="0"
         inkscape:tiled-clone-of="#path16484"
         xlink:href="#path16484"
         transform="translate(150.64615,373.22081)"
         id="use17560" />
      <use
         x="0"
         y="0"
         inkscape:tiled-clone-of="#path16484"
         xlink:href="#path16484"
         transform="translate(150.64615,426.53807)"
         id="use17562" />
      <use
         x="0"
         y="0"
         inkscape:tiled-clone-of="#path16484"
         xlink:href="#path16484"
         transform="translate(150.64615,479.85533)"
         id="use17564" />
      <use
         x="0"
         y="0"
         inkscape:tiled-clone-of="#path16484"
         xlink:href="#path16484"
         transform="translate(200.86154,0)"
         id="use17566" />
      <use
         x="0"
         y="0"
         inkscape:tiled-clone-of="#path16484"
         xlink:href="#path16484"
         transform="translate(200.86154,53.317259)"
         id="use17568" />
      <use
         x="0"
         y="0"
         inkscape:tiled-clone-of="#path16484"
         xlink:href="#path16484"
         transform="translate(200.86154,106.63452)"
         id="use17570" />
      <use
         x="0"
         y="0"
         inkscape:tiled-clone-of="#path16484"
         xlink:href="#path16484"
         transform="translate(200.86154,159.95178)"
         id="use17572" />
      <use
         x="0"
         y="0"
         inkscape:tiled-clone-of="#path16484"
         xlink:href="#path16484"
         transform="translate(200.86154,213.26904)"
         id="use17574" />
      <use
         x="0"
         y="0"
         inkscape:tiled-clone-of="#path16484"
         xlink:href="#path16484"
         transform="translate(200.86154,266.5863)"
         id="use17576" />
      <use
         x="0"
         y="0"
         inkscape:tiled-clone-of="#path16484"
         xlink:href="#path16484"
         transform="translate(200.86154,319.90355)"
         id="use17578" />
      <use
         x="0"
         y="0"
         inkscape:tiled-clone-of="#path16484"
         xlink:href="#path16484"
         transform="translate(200.86154,373.22081)"
         id="use17580" />
      <use
         x="0"
         y="0"
         inkscape:tiled-clone-of="#path16484"
         xlink:href="#path16484"
         transform="translate(200.86154,426.53807)"
         id="use17582" />
      <use
         x="0"
         y="0"
         inkscape:tiled-clone-of="#path16484"
         xlink:href="#path16484"
         transform="translate(200.86154,479.85533)"
         id="use17584" />
      <use
         x="0"
         y="0"
         inkscape:tiled-clone-of="#path16484"
         xlink:href="#path16484"
         transform="translate(251.07692,0)"
         id="use17586" />
      <use
         x="0"
         y="0"
         inkscape:tiled-clone-of="#path16484"
         xlink:href="#path16484"
         transform="translate(251.07692,53.317259)"
         id="use17588" />
      <use
         x="0"
         y="0"
         inkscape:tiled-clone-of="#path16484"
         xlink:href="#path16484"
         transform="translate(251.07692,106.63452)"
         id="use17590" />
      <use
         x="0"
         y="0"
         inkscape:tiled-clone-of="#path16484"
         xlink:href="#path16484"
         transform="translate(251.07692,159.95178)"
         id="use17592" />
      <use
         x="0"
         y="0"
         inkscape:tiled-clone-of="#path16484"
         xlink:href="#path16484"
         transform="translate(251.07692,213.26904)"
         id="use17594" />
      <use
         x="0"
         y="0"
         inkscape:tiled-clone-of="#path16484"
         xlink:href="#path16484"
         transform="translate(251.07692,266.5863)"
         id="use17596" />
      <use
         x="0"
         y="0"
         inkscape:tiled-clone-of="#path16484"
         xlink:href="#path16484"
         transform="translate(251.07692,319.90355)"
         id="use17598" />
      <use
         x="0"
         y="0"
         inkscape:tiled-clone-of="#path16484"
         xlink:href="#path16484"
         transform="translate(251.07692,373.22081)"
         id="use17600" />
      <use
         x="0"
         y="0"
         inkscape:tiled-clone-of="#path16484"
         xlink:href="#path16484"
         transform="translate(251.07692,426.53807)"
         id="use17602" />
      <use
         x="0"
         y="0"
         inkscape:tiled-clone-of="#path16484"
         xlink:href="#path16484"
         transform="translate(251.07692,479.85533)"
         id="use17604" />
      <use
         x="0"
         y="0"
         inkscape:tiled-clone-of="#path16484"
         xlink:href="#path16484"
         transform="translate(301.29231,0)"
         id="use17606" />
      <use
         x="0"
         y="0"
         inkscape:tiled-clone-of="#path16484"
         xlink:href="#path16484"
         transform="translate(301.29231,53.317259)"
         id="use17608" />
      <use
         x="0"
         y="0"
         inkscape:tiled-clone-of="#path16484"
         xlink:href="#path16484"
         transform="translate(301.29231,106.63452)"
         id="use17610" />
      <use
         x="0"
         y="0"
         inkscape:tiled-clone-of="#path16484"
         xlink:href="#path16484"
         transform="translate(301.29231,159.95178)"
         id="use17612" />
      <use
         x="0"
         y="0"
         inkscape:tiled-clone-of="#path16484"
         xlink:href="#path16484"
         transform="translate(301.29231,213.26904)"
         id="use17614" />
      <use
         x="0"
         y="0"
         inkscape:tiled-clone-of="#path16484"
         xlink:href="#path16484"
         transform="translate(301.29231,266.5863)"
         id="use17616" />
      <use
         x="0"
         y="0"
         inkscape:tiled-clone-of="#path16484"
         xlink:href="#path16484"
         transform="translate(301.29231,319.90355)"
         id="use17618" />
      <use
         x="0"
         y="0"
         inkscape:tiled-clone-of="#path16484"
         xlink:href="#path16484"
         transform="translate(301.29231,373.22081)"
         id="use17620" />
      <use
         x="0"
         y="0"
         inkscape:tiled-clone-of="#path16484"
         xlink:href="#path16484"
         transform="translate(301.29231,426.53807)"
         id="use17622" />
      <use
         x="0"
         y="0"
         inkscape:tiled-clone-of="#path16484"
         xlink:href="#path16484"
         transform="translate(301.29231,479.85533)"
         id="use17624" />
      <use
         x="0"
         y="0"
         inkscape:tiled-clone-of="#path16484"
         xlink:href="#path16484"
         transform="translate(351.50769,0)"
         id="use17626" />
      <use
         x="0"
         y="0"
         inkscape:tiled-clone-of="#path16484"
         xlink:href="#path16484"
         transform="translate(351.50769,53.317259)"
         id="use17628" />
      <use
         x="0"
         y="0"
         inkscape:tiled-clone-of="#path16484"
         xlink:href="#path16484"
         transform="translate(351.50769,106.63452)"
         id="use17630" />
      <use
         x="0"
         y="0"
         inkscape:tiled-clone-of="#path16484"
         xlink:href="#path16484"
         transform="translate(351.50769,159.95178)"
         id="use17632" />
      <use
         x="0"
         y="0"
         inkscape:tiled-clone-of="#path16484"
         xlink:href="#path16484"
         transform="translate(351.50769,213.26904)"
         id="use17634" />
      <use
         x="0"
         y="0"
         inkscape:tiled-clone-of="#path16484"
         xlink:href="#path16484"
         transform="translate(351.50769,266.5863)"
         id="use17636" />
      <use
         x="0"
         y="0"
         inkscape:tiled-clone-of="#path16484"
         xlink:href="#path16484"
         transform="translate(351.50769,319.90355)"
         id="use17638" />
      <use
         x="0"
         y="0"
         inkscape:tiled-clone-of="#path16484"
         xlink:href="#path16484"
         transform="translate(351.50769,373.22081)"
         id="use17640" />
      <use
         x="0"
         y="0"
         inkscape:tiled-clone-of="#path16484"
         xlink:href="#path16484"
         transform="translate(351.50769,426.53807)"
         id="use17642" />
      <use
         x="0"
         y="0"
         inkscape:tiled-clone-of="#path16484"
         xlink:href="#path16484"
         transform="translate(351.50769,479.85533)"
         id="use17644" />
      <use
         x="0"
         y="0"
         inkscape:tiled-clone-of="#path16484"
         xlink:href="#path16484"
         transform="translate(401.72307,0)"
         id="use17646" />
      <use
         x="0"
         y="0"
         inkscape:tiled-clone-of="#path16484"
         xlink:href="#path16484"
         transform="translate(401.72307,53.317259)"
         id="use17648" />
      <use
         x="0"
         y="0"
         inkscape:tiled-clone-of="#path16484"
         xlink:href="#path16484"
         transform="translate(401.72307,106.63452)"
         id="use17650" />
      <use
         x="0"
         y="0"
         inkscape:tiled-clone-of="#path16484"
         xlink:href="#path16484"
         transform="translate(401.72307,159.95178)"
         id="use17652" />
      <use
         x="0"
         y="0"
         inkscape:tiled-clone-of="#path16484"
         xlink:href="#path16484"
         transform="translate(401.72307,213.26904)"
         id="use17654" />
      <use
         x="0"
         y="0"
         inkscape:tiled-clone-of="#path16484"
         xlink:href="#path16484"
         transform="translate(401.72307,266.5863)"
         id="use17656" />
      <use
         x="0"
         y="0"
         inkscape:tiled-clone-of="#path16484"
         xlink:href="#path16484"
         transform="translate(401.72307,319.90355)"
         id="use17658" />
      <use
         x="0"
         y="0"
         inkscape:tiled-clone-of="#path16484"
         xlink:href="#path16484"
         transform="translate(401.72307,373.22081)"
         id="use17660" />
      <use
         x="0"
         y="0"
         inkscape:tiled-clone-of="#path16484"
         xlink:href="#path16484"
         transform="translate(401.72307,426.53807)"
         id="use17662" />
      <use
         x="0"
         y="0"
         inkscape:tiled-clone-of="#path16484"
         xlink:href="#path16484"
         transform="translate(401.72307,479.85533)"
         id="use17664" />
      <use
         x="0"
         y="0"
         inkscape:tiled-clone-of="#path16484"
         xlink:href="#path16484"
         transform="translate(451.93846,0)"
         id="use17666" />
      <use
         x="0"
         y="0"
         inkscape:tiled-clone-of="#path16484"
         xlink:href="#path16484"
         transform="translate(451.93846,53.317259)"
         id="use17668" />
      <use
         x="0"
         y="0"
         inkscape:tiled-clone-of="#path16484"
         xlink:href="#path16484"
         transform="translate(451.93846,106.63452)"
         id="use17670" />
      <use
         x="0"
         y="0"
         inkscape:tiled-clone-of="#path16484"
         xlink:href="#path16484"
         transform="translate(451.93846,159.95178)"
         id="use17672" />
      <use
         x="0"
         y="0"
         inkscape:tiled-clone-of="#path16484"
         xlink:href="#path16484"
         transform="translate(451.93846,213.26904)"
         id="use17674" />
      <use
         x="0"
         y="0"
         inkscape:tiled-clone-of="#path16484"
         xlink:href="#path16484"
         transform="translate(451.93846,266.5863)"
         id="use17676" />
      <use
         x="0"
         y="0"
         inkscape:tiled-clone-of="#path16484"
         xlink:href="#path16484"
         transform="translate(451.93846,319.90355)"
         id="use17678" />
      <use
         x="0"
         y="0"
         inkscape:tiled-clone-of="#path16484"
         xlink:href="#path16484"
         transform="translate(451.93846,373.22081)"
         id="use17680" />
      <use
         x="0"
         y="0"
         inkscape:tiled-clone-of="#path16484"
         xlink:href="#path16484"
         transform="translate(451.93846,426.53807)"
         id="use17682" />
      <use
         x="0"
         y="0"
         inkscape:tiled-clone-of="#path16484"
         xlink:href="#path16484"
         transform="translate(451.93846,479.85533)"
         id="use17684" />
      <path
         style="opacity:1;fill:#000000;fill-opacity:1;stroke:#000000;stroke-width:4.99363661;stroke-linejoin:miter;stroke-miterlimit:4.9000001;stroke-dasharray:none;stroke-dashoffset:0;stroke-opacity:1"
         d="m 41.003458,253.00656 c 0.42713,-8.50818 1.350582,-16.67294 2.052118,-18.14392 4.151051,-8.70388 15.999985,-5.86303 17.608153,4.22166 1.398905,8.77242 1.394942,8.76579 5.23752,8.76579 4.992723,0 10.291342,2.00947 11.562745,4.38511 1.665766,3.11251 1.203631,8.93855 -0.928915,11.71063 -1.692196,2.19967 -3.337263,2.65055 -12.731347,3.48938 -5.933428,0.52982 -13.665535,0.98074 -17.182461,1.00204 l -6.394411,0.0387 0.776598,-15.46942 z"
         id="path17706"
         inkscape:connector-curvature="0"
         transform="matrix(1.0656107,0,0,1.1195792,-44.42465,-75.817211)" />
      <path
         style="opacity:1;fill:#000000;fill-opacity:1;stroke:#000000;stroke-width:4.99363661;stroke-linejoin:miter;stroke-miterlimit:4.9000001;stroke-dasharray:none;stroke-dashoffset:0;stroke-opacity:1"
         d="m 88.495461,204.85796 c 0.270939,-9.19735 1.015192,-17.16079 1.725742,-18.46527 1.622755,-2.97917 7.056245,-5.1961 10.572297,-4.31362 3.56362,0.89441 6.69389,6.08846 7.58823,12.59116 l 0.7058,5.13174 5.48276,0.64935 c 9.15103,1.0838 12.66777,5.1637 10.72204,12.43904 -1.46186,5.4661 -4.68978,6.56654 -21.66497,7.38587 l -15.608287,0.75335 0.476388,-16.17162 z"
         id="path17708"
         inkscape:connector-curvature="0"
         transform="matrix(1.0656107,0,0,1.1195792,-44.42465,-75.817211)" />
      <path
         style="opacity:1;fill:#000000;fill-opacity:1;stroke:#000000;stroke-width:4.99363661;stroke-linejoin:miter;stroke-miterlimit:4.9000001;stroke-dasharray:none;stroke-dashoffset:0;stroke-opacity:1"
         d="m 135.02413,163.98955 c 0.12077,-22.68985 2.48338,-29.47331 10.26528,-29.47331 5.3149,0 8.23077,3.25527 9.75546,10.89098 l 1.24332,6.22659 6.3574,1.26944 c 7.27852,1.45336 10.33919,4.29905 10.30179,9.57821 -0.0133,1.87432 -0.94499,4.60606 -2.07048,6.07054 -1.70956,2.22447 -3.35821,2.79407 -10.01741,3.461 -4.38409,0.43907 -12.00126,0.82851 -16.92705,0.86542 l -8.95598,0.0671 0.0477,-8.95598 z"
         id="path17710"
         inkscape:connector-curvature="0"
         transform="matrix(1.0656107,0,0,1.1195792,-44.42465,-75.817211)" />
      <path
         style="opacity:1;fill:#000000;fill-opacity:1;stroke:#000000;stroke-width:4.99363661;stroke-linejoin:miter;stroke-miterlimit:4.9000001;stroke-dasharray:none;stroke-dashoffset:0;stroke-opacity:1"
         d="m 182.89772,109.08031 c 0.39362,-16.13834 0.45281,-16.483911 3.3133,-19.3444 5.35582,-5.355827 14.00461,-2.457592 15.47188,5.18468 1.98307,10.32877 1.29194,9.42853 7.86932,10.25032 8.02663,1.00286 10.32004,3.30349 9.8847,9.91576 -0.52961,8.04415 -2.78062,9.07325 -21.46439,9.81288 l -15.47558,0.61264 0.40077,-16.43188 z"
         id="path17712"
         inkscape:connector-curvature="0"
         transform="matrix(1.0656107,0,0,1.1195792,-44.42465,-75.817211)" />
      <path
         style="opacity:1;fill:#000000;fill-opacity:1;stroke:#000000;stroke-width:4.99363661;stroke-linejoin:miter;stroke-miterlimit:4.9000001;stroke-dasharray:none;stroke-dashoffset:0;stroke-opacity:1"
         d="m 229.51293,66.980431 c 0.14046,-16.458458 1.23657,-23.166858 4.17396,-25.54541 3.27009,-2.647959 9.25685,-2.605034 11.94755,0.08566 2.17373,2.173734 4.39615,8.608632 4.40673,12.759458 0.005,2.018816 0.78127,2.473292 5.16252,3.02302 7.22111,0.906051 10.35091,2.754931 11.511,6.799944 1.20747,4.2102 -0.69283,9.563244 -4.02866,11.348527 -1.2438,0.665658 -9.23718,1.447107 -17.76307,1.736553 l -15.50163,0.526265 0.0916,-10.73402 z"
         id="path17714"
         inkscape:connector-curvature="0"
         transform="matrix(1.0656107,0,0,1.1195792,-44.42465,-75.817211)" />
      <path
         style="opacity:1;fill:#000000;fill-opacity:1;stroke:#000000;stroke-width:4.99363661;stroke-linejoin:miter;stroke-miterlimit:4.9000001;stroke-dasharray:none;stroke-dashoffset:0;stroke-opacity:1"
         d="m 276.47038,29.046708 c -0.36796,-0.958905 -0.21222,-8.528227 0.34609,-16.820715 0.91783,-13.6322395 1.26245,-15.3405209 3.59577,-17.8242191 2.77369,-2.9524597 7.27604,-3.5937951 11.05003,-1.5740163 2.63476,1.4100783 5.2646,7.29501187 5.2646,11.7808649 0,3.7655485 1.72164,4.9415423 8.49745,5.8043115 6.42773,0.818447 8.87172,3.271062 8.87172,8.903008 0,6.556757 -2.98176,8.978364 -11.95049,9.705476 -22.5254,1.826175 -24.98317,1.828596 -25.67517,0.02529 z"
         id="path17716"
         inkscape:connector-curvature="0"
         transform="matrix(1.0656107,0,0,1.1195792,-44.42465,-75.817211)" />
      <path
         style="opacity:1;fill:#000000;fill-opacity:1;stroke:#000000;stroke-width:4.99363661;stroke-linejoin:miter;stroke-miterlimit:4.9000001;stroke-dasharray:none;stroke-dashoffset:0;stroke-opacity:1"
         d="m -6.0688096,304.57129 c 0.113903,-16.77268 1.1662839,-22.89545 4.3568473,-25.34821 6.5225731,-5.01427 13.4878103,-0.80896 15.5173763,9.36872 1.208824,6.06191 1.500315,6.49875 4.510493,6.75962 6.717041,0.58213 10.99116,2.39051 12.266718,5.19005 1.917045,4.20746 1.527976,7.6732 -1.220058,10.86798 -2.293544,2.6664 -3.398738,2.95874 -14.383846,3.80477 -6.5446741,0.50404 -13.9755672,0.94131 -16.5130946,0.97171 l -4.6136863,0.0553 0.07925,-11.66991 z"
         id="path17718"
         inkscape:connector-curvature="0"
         transform="matrix(1.0656107,0,0,1.1195792,-44.42465,-75.817211)" />
      <path
         style="opacity:1;fill:#000000;fill-opacity:1;stroke:#000000;stroke-width:4.99363661;stroke-linejoin:miter;stroke-miterlimit:4.9000001;stroke-dasharray:none;stroke-dashoffset:0;stroke-opacity:1"
         d="m -4.2483067,410.95169 c -1.6635942,-0.37201 -1.8899016,-1.79814 -1.8205029,-11.47234 0.1547228,-21.56845 2.1534587,-26.78834 10.2574586,-26.78834 4.9319209,0 8.906053,4.83406 9.85498,11.98743 0.392652,2.95996 0.773105,5.38457 0.845451,5.38803 3.495687,0.16709 13.254023,2.42883 14.329192,3.32114 3.94554,3.27451 2.274292,13.76735 -2.487592,15.61822 -1.066947,0.41471 -6.336474,0.97899 -11.710062,1.25397 -5.3735874,0.27497 -11.4799368,0.63872 -13.5696653,0.80832 -2.08972843,0.16961 -4.6543952,0.11721 -5.6992594,-0.11643 z"
         id="path17720"
         inkscape:connector-curvature="0"
         transform="matrix(1.0656107,0,0,1.1195792,-44.42465,-75.817211)" />
      <path
         style="opacity:1;fill:#000000;fill-opacity:1;stroke:#000000;stroke-width:4.99363661;stroke-linejoin:miter;stroke-miterlimit:4.9000001;stroke-dasharray:none;stroke-dashoffset:0;stroke-opacity:1"
         d="m 40.868801,362.2338 c -0.374121,-0.97495 -0.219538,-8.52569 0.343518,-16.77944 0.926051,-13.57483 1.271235,-15.27025 3.617454,-17.76769 2.786775,-2.96639 7.281878,-3.61159 11.063111,-1.58793 2.612981,1.39842 5.264596,7.28437 5.264596,11.68613 0,4.08116 1.515726,5.18326 8.098962,5.88887 6.489869,0.69561 9.27021,3.51727 9.27021,9.40798 0,2.84869 -0.7619,4.74857 -2.594844,6.47053 -2.25101,2.11471 -4.372728,2.56692 -16.012205,3.4127 -18.020842,1.30948 -18.271427,1.29987 -19.050802,-0.73115 z"
         id="path17722"
         inkscape:connector-curvature="0"
         transform="matrix(1.0656107,0,0,1.1195792,-44.42465,-75.817211)" />
      <path
         style="opacity:1;fill:#000000;fill-opacity:1;stroke:#000000;stroke-width:4.99363661;stroke-linejoin:miter;stroke-miterlimit:4.9000001;stroke-dasharray:none;stroke-dashoffset:0;stroke-opacity:1"
         d="m 88.344089,303.61587 c 0.07626,-20.78557 2.17281,-26.45531 9.782609,-26.45531 4.899152,0 8.381912,3.9767 9.982722,11.39852 l 1.40488,6.51344 5.81453,0.71262 c 3.58153,0.43894 6.63446,1.53254 7.94954,2.84763 2.67937,2.67936 2.95169,8.82805 0.55314,12.48871 -2.08594,3.18354 -4.30722,3.63881 -22.77921,4.6688 l -12.755489,0.71124 0.04728,-12.88565 z"
         id="path17726"
         inkscape:connector-curvature="0"
         transform="matrix(1.0656107,0,0,1.1195792,-44.42465,-75.817211)" />
      <path
         style="opacity:1;fill:#000000;fill-opacity:1;stroke:#000000;stroke-width:4.99363661;stroke-linejoin:miter;stroke-miterlimit:4.9000001;stroke-dasharray:none;stroke-dashoffset:0;stroke-opacity:1"
         d="m 135.35684,252.46377 c 0.78012,-17.40782 1.7848,-20.39217 7.55718,-22.44843 5.93149,-2.11293 11.214,2.98395 12.50691,12.06743 0.64467,4.52919 1.10356,5.2635 3.44786,5.5173 7.19997,0.7795 10.05306,1.62821 11.99214,3.56729 2.94762,2.94762 2.75244,8.84234 -0.4147,12.52437 -2.25559,2.62227 -3.55994,3.0263 -12.2127,3.78289 -5.32807,0.46588 -12.81645,0.88177 -16.64083,0.92421 l -6.95343,0.0772 0.71757,-16.01221 z"
         id="path17728"
         inkscape:connector-curvature="0"
         transform="matrix(1.0656107,0,0,1.1195792,-44.42465,-75.817211)" />
      <path
         style="opacity:1;fill:#000000;fill-opacity:1;stroke:#000000;stroke-width:4.99363661;stroke-linejoin:miter;stroke-miterlimit:4.9000001;stroke-dasharray:none;stroke-dashoffset:0;stroke-opacity:1"
         d="m 182.74774,206.8697 c 0.008,-17.39257 1.04087,-21.48188 6.02894,-23.86053 3.44969,-1.64504 4.01739,-1.64659 7.42787,-0.0202 3.79492,1.80967 5.14355,4.48007 6.57801,13.02503 0.59261,3.53014 1.07342,4.07171 3.61953,4.07696 4.95826,0.0102 10.99489,2.15266 12.15073,4.31237 1.72943,3.23145 1.28576,9.32206 -0.87329,11.98837 -1.62744,2.00981 -3.56993,2.58741 -11.12712,3.30868 -5.03552,0.48059 -12.45292,0.90454 -16.48311,0.94211 l -7.32762,0.0683 0.006,-13.84106 z"
         id="path17730"
         inkscape:connector-curvature="0"
         transform="matrix(1.0656107,0,0,1.1195792,-44.42465,-75.817211)" />
      <path
         style="opacity:1;fill:#000000;fill-opacity:1;stroke:#000000;stroke-width:4.99363661;stroke-linejoin:miter;stroke-miterlimit:4.9000001;stroke-dasharray:none;stroke-dashoffset:0;stroke-opacity:1"
         d="m 229.50058,161.98727 c 0.1537,-21.9083 2.24957,-27.47103 10.35025,-27.47103 5.45064,0 8.71319,3.92997 9.67885,11.65888 l 0.73311,5.86763 5.45739,0.64635 c 9.2085,1.09061 13.39757,5.80705 11.03798,12.42759 -2.0111,5.64274 -5.1144,6.70191 -21.86741,7.46341 l -15.46942,0.70316 0.0793,-11.29599 z"
         id="path17732"
         inkscape:connector-curvature="0"
         transform="matrix(1.0656107,0,0,1.1195792,-44.42465,-75.817211)" />
      <path
         style="opacity:1;fill:#000000;fill-opacity:1;stroke:#000000;stroke-width:4.99363661;stroke-linejoin:miter;stroke-miterlimit:4.9000001;stroke-dasharray:none;stroke-dashoffset:0;stroke-opacity:1"
         d="m 276.59283,124.01232 c -1.01022,-1.63457 0.49956,-26.820784 1.87224,-31.232868 1.40217,-4.50685 6.85122,-7.249726 11.15315,-5.614135 3.46733,1.318278 7.094,7.133431 7.12122,11.418451 0.03,4.719372 1.0151,5.667802 6.78499,6.532172 7.26833,1.08886 10.57161,3.95329 10.57161,9.16717 0,6.31514 -2.78663,8.96519 -10.42819,9.91703 -10.03007,1.24936 -26.25637,1.13679 -27.07502,-0.18782 z"
         id="path17734"
         inkscape:connector-curvature="0"
         transform="matrix(1.0656107,0,0,1.1195792,-44.42465,-75.817211)" />
      <path
         style="opacity:1;fill:#000000;fill-opacity:1;stroke:#000000;stroke-width:4.99363661;stroke-linejoin:miter;stroke-miterlimit:4.9000001;stroke-dasharray:none;stroke-dashoffset:0;stroke-opacity:1"
         d="m 324.0616,61.830649 c 0.41715,-13.865801 0.76371,-16.297078 2.69275,-18.890888 1.66097,-2.233356 3.30354,-3.058581 6.57601,-3.303765 3.7215,-0.278827 4.76568,0.152908 7.11101,2.940174 1.72109,2.045402 3.02776,5.293893 3.49453,8.687691 l 0.74554,5.420699 5.0618,0.743066 c 7.87203,1.155605 9.62832,2.163253 10.99659,6.309139 1.04311,3.16064 0.95269,4.478426 -0.52022,7.582368 -0.98052,2.066279 -2.59992,4.083205 -3.59866,4.482057 -0.99875,0.398852 -8.84091,0.999284 -17.42702,1.334293 l -15.6111,0.609108 0.47877,-15.913942 z"
         id="path17736"
         inkscape:connector-curvature="0"
         transform="matrix(1.0656107,0,0,1.1195792,-44.42465,-75.817211)" />
      <path
         style="opacity:1;fill:#000000;fill-opacity:1;stroke:#000000;stroke-width:4.99363661;stroke-linejoin:miter;stroke-miterlimit:4.9000001;stroke-dasharray:none;stroke-dashoffset:0;stroke-opacity:1"
         d="m 370.91574,29.047971 c -1.04538,-2.72422 0.64933,-29.81136385 2.02702,-32.3985744 1.83732,-3.4503643 4.28172,-4.9219003 8.23926,-4.9600667 5.89353,-0.056837 9.98972,5.9737143 9.98972,14.7072197 0,2.0804903 0.72202,2.6470162 4.0709,3.1941853 8.9646,1.4647141 10.10033,1.8640731 11.66856,4.1030401 2.27786,3.252101 2.03016,8.640768 -0.54784,11.918168 -2.31754,2.946277 -0.94251,2.706549 -26.33488,4.591295 -7.18207,0.533088 -8.53046,0.362147 -9.11274,-1.155267 z"
         id="path17738"
         inkscape:connector-curvature="0"
         transform="matrix(1.0656107,0,0,1.1195792,-44.42465,-75.817211)" />
      <path
         style="opacity:1;fill:#000000;fill-opacity:1;stroke:#000000;stroke-width:4.99363661;stroke-linejoin:miter;stroke-miterlimit:4.9000001;stroke-dasharray:none;stroke-dashoffset:0;stroke-opacity:1"
         d="m 418.4656,61.37717 c 0.37913,-15.544408 0.53101,-16.50631 3.02548,-19.161558 3.48401,-3.708558 9.56498,-3.848331 12.9017,-0.296549 1.776,1.890463 4.54418,10.678559 4.54418,14.426328 0,0.189984 1.83191,0.639962 4.0709,0.999949 7.52912,1.210538 8.79745,1.611556 10.50843,3.322536 2.75954,2.75954 2.22916,10.447778 -0.92518,13.411124 -2.417,2.270656 -3.91792,2.518468 -18.57706,3.067189 l -15.94762,0.596952 0.39917,-16.365971 z"
         id="path17740"
         inkscape:connector-curvature="0"
         transform="matrix(1.0656107,0,0,1.1195792,-44.42465,-75.817211)" />
      <path
         style="opacity:1;fill:#000000;fill-opacity:1;stroke:#000000;stroke-width:4.99363661;stroke-linejoin:miter;stroke-miterlimit:4.9000001;stroke-dasharray:none;stroke-dashoffset:0;stroke-opacity:1"
         d="m 370.93536,110.01639 c 0.39813,-8.34016 1.19502,-16.403152 1.77088,-17.917763 0.57585,-1.51461 2.64821,-3.517396 4.60523,-4.450636 6.75648,-3.221941 12.27412,1.271183 13.67904,11.139109 l 0.74382,5.22453 6.48727,1.28219 c 7.4464,1.47176 10.31931,4.13705 10.31931,9.57355 0,8.1179 -5.15989,10.03034 -27.57791,10.22134 l -10.75152,0.0916 0.72388,-15.16392 z"
         id="path17742"
         inkscape:connector-curvature="0"
         transform="matrix(1.0656107,0,0,1.1195792,-44.42465,-75.817211)" />
      <path
         style="opacity:1;fill:#000000;fill-opacity:1;stroke:#000000;stroke-width:4.99363661;stroke-linejoin:miter;stroke-miterlimit:4.9000001;stroke-dasharray:none;stroke-dashoffset:0;stroke-opacity:1"
         d="m 324.09463,156.63811 c 0.48697,-15.17113 0.69832,-16.49356 3.03314,-18.97887 3.33901,-3.55421 6.0007,-4.26812 9.89653,-2.65442 3.82691,1.58516 5.89571,5.18752 6.92643,12.06087 l 0.75436,5.0304 5.83601,0.72916 c 7.86194,0.98228 10.72803,3.42497 10.72803,9.14318 0,8.61902 -5.66033,10.78092 -28.59445,10.92136 l -9.10348,0.0557 0.52343,-16.30742 z"
         id="path17744"
         inkscape:connector-curvature="0"
         transform="matrix(1.0656107,0,0,1.1195792,-44.42465,-75.817211)" />
      <path
         style="opacity:1;fill:#000000;fill-opacity:1;stroke:#000000;stroke-width:4.99363661;stroke-linejoin:miter;stroke-miterlimit:4.9000001;stroke-dasharray:none;stroke-dashoffset:0;stroke-opacity:1"
         d="m 276.46454,219.00679 c -0.35963,-0.93719 -0.16056,-8.60436 0.44238,-17.03816 1.04774,-14.65556 1.225,-15.44491 4.0052,-17.83634 1.59992,-1.3762 4.06549,-2.50217 5.47905,-2.50217 4.01194,0 9.07594,4.93282 9.81854,9.5642 1.39096,8.67487 1.50253,8.89026 4.60874,8.8966 4.98391,0.0102 11.02073,2.14767 12.17924,4.31237 1.72943,3.23145 1.28576,9.32206 -0.87329,11.98837 -1.62744,2.00981 -3.56993,2.58741 -11.12712,3.30868 -15.59837,1.48872 -23.78413,1.2573 -24.53274,-0.69355 z"
         id="path17746"
         inkscape:connector-curvature="0"
         transform="matrix(1.0656107,0,0,1.1195792,-44.42465,-75.817211)" />
      <path
         style="opacity:1;fill:#000000;fill-opacity:1;stroke:#000000;stroke-width:4.99363661;stroke-linejoin:miter;stroke-miterlimit:4.9000001;stroke-dasharray:none;stroke-dashoffset:0;stroke-opacity:1"
         d="m 229.50058,257.34885 c 0.11868,-16.66379 1.17692,-22.39349 4.69482,-25.41945 6.37888,-5.48688 13.19656,-1.49749 15.28106,8.94177 l 1.28409,6.43077 5.88538,0.81815 c 9.86323,1.37112 13.90086,8.9965 8.24517,15.57164 -2.25559,2.62227 -3.55994,3.0263 -12.2127,3.78289 -5.32807,0.46588 -12.74058,0.88177 -16.47224,0.92421 l -6.78483,0.0772 0.0793,-11.12713 z"
         id="path17748"
         inkscape:connector-curvature="0"
         transform="matrix(1.0656107,0,0,1.1195792,-44.42465,-75.817211)" />
      <path
         style="opacity:1;fill:#000000;fill-opacity:1;stroke:#000000;stroke-width:4.99363661;stroke-linejoin:miter;stroke-miterlimit:4.9000001;stroke-dasharray:none;stroke-dashoffset:0;stroke-opacity:1"
         d="m 182.89966,299.3186 0.38997,-16.9226 3.04328,-2.61772 c 7.30428,-6.28287 14.63644,-1.56552 16.39785,10.55002 l 0.7307,5.02594 5.90688,0.48985 c 7.68523,0.63731 10.28283,2.92262 10.28283,9.04658 0,7.93299 -1.84822,9.10073 -16.2836,10.28822 -6.86625,0.56484 -14.36819,1.03493 -16.67098,1.04464 l -4.1869,0.0177 0.38997,-16.9226 z"
         id="path17750"
         inkscape:connector-curvature="0"
         transform="matrix(1.0656107,0,0,1.1195792,-44.42465,-75.817211)" />
      <path
         style="opacity:1;fill:#000000;fill-opacity:1;stroke:#000000;stroke-width:4.99363661;stroke-linejoin:miter;stroke-miterlimit:4.9000001;stroke-dasharray:none;stroke-dashoffset:0;stroke-opacity:1"
         d="m 135.32393,362.26052 c -1.05742,-2.7556 0.61787,-29.65255 2.0097,-32.26589 2.5361,-4.76187 8.11285,-6.51362 12.78168,-4.01494 2.39043,1.27932 5.48704,8.64963 5.48704,13.05983 0,3.42658 0.31519,3.58987 9.22737,4.78046 2.59288,0.34638 5.10767,1.51655 6.24205,2.90452 2.66832,3.26479 2.41785,8.96828 -0.54279,12.36013 -2.26671,2.59685 -3.41938,2.87295 -16.0122,3.83541 -18.00454,1.37607 -18.41716,1.36189 -19.19285,-0.65952 z"
         id="path17752"
         inkscape:connector-curvature="0"
         transform="matrix(1.0656107,0,0,1.1195792,-44.42465,-75.817211)" />
      <path
         style="opacity:1;fill:#000000;fill-opacity:1;stroke:#000000;stroke-width:4.99363661;stroke-linejoin:miter;stroke-miterlimit:4.9000001;stroke-dasharray:none;stroke-dashoffset:0;stroke-opacity:1"
         d="m 90.196564,410.96523 c -1.677679,-0.38712 -1.896726,-1.92012 -1.873855,-13.11424 0.04048,-19.81535 2.230769,-25.15998 10.310811,-25.15998 4.90558,0 8.6684,4.58742 9.61482,11.72183 0.74766,5.63614 1.98438,6.68111 7.9509,6.71809 7.00941,0.0434 11.16591,5.95755 8.93591,12.71452 -1.62163,4.91356 -3.64399,5.72254 -15.92165,6.36894 -5.83206,0.30705 -12.069267,0.70023 -13.860463,0.87373 -1.791196,0.1735 -4.111609,0.1182 -5.156473,-0.12289 z"
         id="path17754"
         inkscape:connector-curvature="0"
         transform="matrix(1.0656107,0,0,1.1195792,-44.42465,-75.817211)" />
      <path
         style="opacity:1;fill:#000000;fill-opacity:1;stroke:#000000;stroke-width:4.99363661;stroke-linejoin:miter;stroke-miterlimit:4.9000001;stroke-dasharray:none;stroke-dashoffset:0;stroke-opacity:1"
         d="m 41.019235,443.69545 c 0.901396,-17.03794 2.173708,-21.37243 6.7232,-22.90447 6.847805,-2.30601 11.908098,1.95719 13.214641,11.13308 l 0.762998,5.35855 6.293774,1.2445 c 3.461575,0.68447 7.243055,2.10358 8.403289,3.15357 2.985081,2.70146 2.812518,9.31881 -0.33854,12.98213 -2.391505,2.78029 -2.833943,2.86087 -19.153074,3.48805 l -16.70502,0.64201 0.798732,-15.09742 z"
         id="path17756"
         inkscape:connector-curvature="0"
         transform="matrix(1.0656107,0,0,1.1195792,-44.42465,-75.817211)" />
      <path
         style="opacity:1;fill:#000000;fill-opacity:1;stroke:#000000;stroke-width:4.99363661;stroke-linejoin:miter;stroke-miterlimit:4.9000001;stroke-dasharray:none;stroke-dashoffset:0;stroke-opacity:1"
         d="m 135.32368,443.39418 c 0.37672,-8.28141 1.18175,-16.36381 1.78895,-17.96089 1.47074,-3.86831 6.94479,-6.18995 11.14367,-4.72621 4.14272,1.44416 6.19151,4.81655 6.98224,11.49304 l 0.65199,5.50506 6.0259,0.75289 c 7.43823,0.92934 11.05509,4.04092 11.05509,9.51067 0,8.28719 -5.0995,10.24939 -27.0368,10.4033 l -11.29599,0.0792 0.68495,-15.05711 z"
         id="path17758"
         inkscape:connector-curvature="0"
         transform="matrix(1.0656107,0,0,1.1195792,-44.42465,-75.817211)" />
      <path
         style="opacity:1;fill:#000000;fill-opacity:1;stroke:#000000;stroke-width:4.99363661;stroke-linejoin:miter;stroke-miterlimit:4.9000001;stroke-dasharray:none;stroke-dashoffset:0;stroke-opacity:1"
         d="m 183.95022,410.76207 c -1.14212,-0.70587 -1.36851,-4.31221 -1.04824,-16.69814 0.38799,-15.00439 0.54243,-15.94039 3.07503,-18.63621 2.1496,-2.28815 3.49393,-2.77592 6.93469,-2.51616 5.24389,0.3959 8.09361,3.76948 9.48773,11.23187 0.53385,2.85754 1.15259,5.37748 1.37498,5.59987 0.22238,0.22239 2.91231,0.8008 5.9776,1.28535 7.37891,1.16645 9.89916,3.54014 9.89916,9.32349 0,7.30994 -2.80819,9.1174 -15.26516,9.82521 -5.63519,0.32019 -12.21079,0.78531 -14.61243,1.0336 -2.40164,0.24829 -5.02215,0.0463 -5.82336,-0.44888 z"
         id="path17760"
         inkscape:connector-curvature="0"
         transform="matrix(1.0656107,0,0,1.1195792,-44.42465,-75.817211)" />
      <path
         style="opacity:1;fill:#000000;fill-opacity:1;stroke:#000000;stroke-width:4.99363661;stroke-linejoin:miter;stroke-miterlimit:4.9000001;stroke-dasharray:none;stroke-dashoffset:0;stroke-opacity:1"
         d="m 229.51293,352.8793 c 0.18798,-22.83325 2.06458,-27.95351 10.24511,-27.95351 4.80361,0 8.81224,4.76039 9.83132,11.67507 0.86414,5.8633 1.73942,6.73978 6.75382,6.76305 9.6442,0.0448 14.52866,8.94803 8.63067,15.7318 -2.28703,2.6305 -3.34102,2.87424 -16.55499,3.82837 -7.76185,0.56046 -15.21159,1.03326 -16.55499,1.05068 -2.38206,0.0309 -2.44027,-0.24384 -2.35094,-11.09546 z"
         id="path17762"
         inkscape:connector-curvature="0"
         transform="matrix(1.0656107,0,0,1.1195792,-44.42465,-75.817211)" />
      <path
         style="opacity:1;fill:#000000;fill-opacity:1;stroke:#000000;stroke-width:4.99363661;stroke-linejoin:miter;stroke-miterlimit:4.9000001;stroke-dasharray:none;stroke-dashoffset:0;stroke-opacity:1"
         d="m 276.46454,314.53723 c -0.35963,-0.93718 -0.16056,-8.60435 0.44238,-17.03815 1.04774,-14.65557 1.225,-15.44492 4.0052,-17.83635 6.00545,-5.16567 13.89115,-1.61341 15.26256,6.87531 1.49371,9.24569 1.09096,8.76307 7.77543,9.3174 7.34286,0.60893 10.14593,3.22278 10.14593,9.46106 0,6.88105 -3.19511,8.80185 -16.47022,9.9014 -16.93296,1.40253 -20.40474,1.29085 -21.16128,-0.68067 z"
         id="path17764"
         inkscape:connector-curvature="0"
         transform="matrix(1.0656107,0,0,1.1195792,-44.42465,-75.817211)" />
      <path
         style="opacity:1;fill:#000000;fill-opacity:1;stroke:#000000;stroke-width:4.99363661;stroke-linejoin:miter;stroke-miterlimit:4.9000001;stroke-dasharray:none;stroke-dashoffset:0;stroke-opacity:1"
         d="m 324.06938,252.46377 c 0.26772,-9.08495 1.01236,-17.00449 1.72121,-18.30586 1.62276,-2.97917 7.05625,-5.1961 10.5723,-4.31362 3.56327,0.89432 6.69386,6.0883 7.58797,12.58921 l 0.70552,5.12979 6.07005,0.62649 c 7.67016,0.79163 10.5427,3.36112 10.5427,9.43047 0,7.13837 -2.68902,8.87085 -15.35309,9.8917 -5.85823,0.47223 -13.27644,0.88233 -16.48492,0.91132 l -5.8336,0.0527 0.47186,-16.01221 z"
         id="path17766"
         inkscape:connector-curvature="0"
         transform="matrix(1.0656107,0,0,1.1195792,-44.42465,-75.817211)" />
      <path
         style="opacity:1;fill:#000000;fill-opacity:1;stroke:#000000;stroke-width:4.99363661;stroke-linejoin:miter;stroke-miterlimit:4.9000001;stroke-dasharray:none;stroke-dashoffset:0;stroke-opacity:1"
         d="m 370.90356,205.42297 c 0.74772,-16.4372 1.7647,-20.05998 6.35322,-22.632 5.99632,-3.36113 12.36322,1.92101 13.71616,11.37926 l 0.76461,5.34526 5.91439,0.85116 c 7.48162,1.07671 10.89824,4.03464 10.86483,9.40621 -0.043,6.92045 -2.70712,8.93729 -13.11853,9.93134 -5.01137,0.47847 -12.72925,0.90068 -17.15085,0.93825 l -8.03927,0.0683 0.69544,-15.28779 z"
         id="path17768"
         inkscape:connector-curvature="0"
         transform="matrix(1.0656107,0,0,1.1195792,-44.42465,-75.817211)" />
      <path
         style="opacity:1;fill:#000000;fill-opacity:1;stroke:#000000;stroke-width:4.99363661;stroke-linejoin:miter;stroke-miterlimit:4.9000001;stroke-dasharray:none;stroke-dashoffset:0;stroke-opacity:1"
         d="m 418.55412,157.10777 c 0.26851,-8.90266 0.84084,-16.98005 1.27186,-17.94977 0.43101,-0.96971 2.41038,-2.63916 4.39858,-3.70988 6.81789,-3.67167 12.33325,1.06673 14.13318,12.14223 l 0.731,4.49809 5.98403,0.74765 c 7.99777,0.99926 10.36972,3.39085 9.93354,10.0158 -0.52226,7.93254 -2.60413,8.88177 -21.34839,9.73379 l -15.592,0.70873 0.4882,-16.18664 z"
         id="path17770"
         inkscape:connector-curvature="0"
         transform="matrix(1.0656107,0,0,1.1195792,-44.42465,-75.817211)" />
      <path
         style="opacity:1;fill:#000000;fill-opacity:1;stroke:#000000;stroke-width:4.99363661;stroke-linejoin:miter;stroke-miterlimit:4.9000001;stroke-dasharray:none;stroke-dashoffset:0;stroke-opacity:1"
         d="m 418.46621,252.41287 c 0.42791,-17.54412 1.55704,-21.23047 6.91482,-22.57519 6.83462,-1.71538 11.63124,2.93966 12.90232,12.52148 l 0.69224,5.21841 5.34685,0.51376 c 8.05552,0.77403 10.89812,3.09308 10.89812,8.89089 0,7.89741 -1.99336,9.31669 -14.6753,10.44891 -5.95962,0.53207 -13.45358,0.98482 -16.65325,1.00612 l -5.81758,0.0387 0.39178,-16.06311 z"
         id="path17772"
         inkscape:connector-curvature="0"
         transform="matrix(1.0656107,0,0,1.1195792,-44.42465,-75.817211)" />
      <path
         style="opacity:1;fill:#000000;fill-opacity:1;stroke:#000000;stroke-width:4.99363661;stroke-linejoin:miter;stroke-miterlimit:4.9000001;stroke-dasharray:none;stroke-dashoffset:0;stroke-opacity:1"
         d="m 370.59352,307.28522 c 0.0262,-4.92579 0.47012,-12.60664 0.98645,-17.06856 0.78575,-6.79015 1.4072,-8.5155 3.81237,-10.58434 6.9228,-5.95474 13.96821,-1.25802 15.62443,10.41582 0.68154,4.80377 0.87933,5.03725 4.5048,5.31742 6.17785,0.47743 8.60923,1.2675 10.87581,3.53408 2.963,2.963 2.80243,8.85547 -0.3409,12.50981 -2.29355,2.6664 -3.39874,2.95874 -14.38385,3.80477 -6.54467,0.50404 -13.97557,0.94131 -16.51309,0.97171 l -4.61369,0.0553 0.0477,-8.95598 z"
         id="path17774"
         inkscape:connector-curvature="0"
         transform="matrix(1.0656107,0,0,1.1195792,-44.42465,-75.817211)" />
      <path
         style="opacity:1;fill:#000000;fill-opacity:1;stroke:#000000;stroke-width:4.99363661;stroke-linejoin:miter;stroke-miterlimit:4.9000001;stroke-dasharray:none;stroke-dashoffset:0;stroke-opacity:1"
         d="m 323.91348,351.2952 c 0.0776,-21.0097 2.15013,-26.36941 10.1967,-26.36941 4.92741,0 8.15035,3.85841 9.67527,11.58295 l 1.24943,6.329 5.42786,0.63941 c 7.66773,0.90327 9.04365,1.75219 10.45048,6.44778 1.06983,3.57078 0.95112,4.64827 -0.85235,7.73624 -2.44957,4.19424 -4.14873,4.60795 -23.43918,5.70704 l -12.75549,0.72675 0.0473,-12.79976 z"
         id="path17776"
         inkscape:connector-curvature="0"
         transform="matrix(1.0656107,0,0,1.1195792,-44.42465,-75.817211)" />
      <path
         style="opacity:1;fill:#000000;fill-opacity:1;stroke:#000000;stroke-width:4.99363661;stroke-linejoin:miter;stroke-miterlimit:4.9000001;stroke-dasharray:none;stroke-dashoffset:0;stroke-opacity:1"
         d="m 277.71339,410.26586 c -1.79968,-1.31595 -1.86837,-2.57505 -0.91387,-16.75191 0.93497,-13.88674 1.27488,-15.58746 3.61272,-18.07597 2.77369,-2.95246 7.27604,-3.5938 11.05003,-1.57402 2.63476,1.41008 5.2646,7.29501 5.2646,11.78086 0,3.81128 2.43392,5.50093 7.92403,5.50093 5.81744,0 9.44514,3.50164 9.44514,9.11693 0,7.40981 -2.76286,9.20428 -15.26516,9.91467 -5.63519,0.32019 -12.2541,0.79125 -14.70868,1.04679 -2.67046,0.27802 -5.24442,-0.10685 -6.40881,-0.95828 z"
         id="path17778"
         inkscape:connector-curvature="0"
         transform="matrix(1.0656107,0,0,1.1195792,-44.42465,-75.817211)" />
      <path
         style="opacity:1;fill:#000000;fill-opacity:1;stroke:#000000;stroke-width:4.99363661;stroke-linejoin:miter;stroke-miterlimit:4.9000001;stroke-dasharray:none;stroke-dashoffset:0;stroke-opacity:1"
         d="m 229.67982,443.02646 c 0.33366,-8.91374 1.14986,-16.80264 1.87948,-18.16595 1.86533,-3.48539 7.2622,-5.50589 11.11711,-4.16206 3.66014,1.27593 6.06863,5.4734 6.98757,12.17784 0.66322,4.83869 0.68634,4.86102 5.68106,5.48427 7.07753,0.88315 10.21536,2.75397 11.36965,6.77875 1.19537,4.168 -0.68388,9.55845 -3.93981,11.30097 -1.19492,0.63951 -9.26285,1.42814 -17.92872,1.75252 l -15.75612,0.58979 0.58978,-15.75613 z"
         id="path17780"
         inkscape:connector-curvature="0"
         transform="matrix(1.0656107,0,0,1.1195792,-44.42465,-75.817211)" />
      <path
         style="opacity:1;fill:#000000;fill-opacity:1;stroke:#000000;stroke-width:4.99363661;stroke-linejoin:miter;stroke-miterlimit:4.9000001;stroke-dasharray:none;stroke-dashoffset:0;stroke-opacity:1"
         d="m 323.91348,446.39804 c 0.0778,-20.35107 2.16385,-25.9647 9.72869,-26.17979 5.08271,-0.14451 9.28398,4.74004 10.27508,11.94619 0.68083,4.95024 1.03468,5.48154 4.05282,6.08516 1.81877,0.36376 4.41294,0.66137 5.76483,0.66137 7.19698,0 10.26394,10.29717 4.71861,15.84251 -2.72273,2.72273 -3.4184,2.84999 -18.7076,3.4223 l -15.87971,0.59441 0.0473,-12.37215 z"
         id="path17782"
         inkscape:connector-curvature="0"
         transform="matrix(1.0656107,0,0,1.1195792,-44.42465,-75.817211)" />
      <path
         style="opacity:1;fill:#000000;fill-opacity:1;stroke:#000000;stroke-width:4.99363661;stroke-linejoin:miter;stroke-miterlimit:4.9000001;stroke-dasharray:none;stroke-dashoffset:0;stroke-opacity:1"
         d="m 372.4456,410.94842 c -1.61421,-0.35819 -1.89095,-1.67411 -1.84122,-8.75514 0.0322,-4.58348 0.46333,-12.19628 0.95808,-16.91734 1.00704,-9.60959 3.16466,-12.51554 9.32618,-12.56079 6.25144,-0.0459 10.25895,5.53444 10.27705,14.31051 0.005,2.54937 0.5423,3.02375 4.07695,3.60128 8.9646,1.46471 10.10033,1.86407 11.66856,4.10304 2.27786,3.2521 2.03016,8.64076 -0.54784,11.91816 -1.8706,2.37808 -3.28611,2.85297 -10.04155,3.36881 -13.69356,1.04565 -21.91603,1.36643 -23.87621,0.93147 z"
         id="path17784"
         inkscape:connector-curvature="0"
         transform="matrix(1.0656107,0,0,1.1195792,-44.42465,-75.817211)" />
      <path
         style="opacity:1;fill:#000000;fill-opacity:1;stroke:#000000;stroke-width:4.99363661;stroke-linejoin:miter;stroke-miterlimit:4.9000001;stroke-dasharray:none;stroke-dashoffset:0;stroke-opacity:1"
         d="m 417.44873,353.96487 0.22323,-10.04155 0.36117,9.45385 0.36116,9.45385 8.37158,0.36924 8.37159,0.36923 -8.95598,0.21847 -8.95598,0.21846 0.22323,-10.04155 z"
         id="path17786"
         inkscape:connector-curvature="0"
         transform="matrix(1.0656107,0,0,1.1195792,-44.42465,-75.817211)" />
      <path
         style="opacity:1;fill:#000000;fill-opacity:1;stroke:#000000;stroke-width:4.99363661;stroke-linejoin:miter;stroke-miterlimit:4.9000001;stroke-dasharray:none;stroke-dashoffset:0;stroke-opacity:1"
         d="m -6.0688096,209.58363 c 0.043588,-6.11992 0.4549003,-13.77274 0.9140282,-17.00626 2.1517911,-15.15454 17.1703774,-14.20183 19.0961304,1.21137 l 0.75147,6.01456 6.134552,0.62872 c 4.802111,0.49215 6.665079,1.24325 8.577092,3.45803 3.163999,3.66503 3.108756,8.3261 -0.143491,12.10706 -2.269164,2.63806 -3.632569,3.10157 -11.127125,3.78281 -4.697602,0.427 -12.0827777,0.81112 -16.411501,0.8536 l -7.8704059,0.0772 0.07925,-11.12713 z"
         id="path17788"
         inkscape:connector-curvature="0"
         transform="matrix(1.0656107,0,0,1.1195792,-44.42465,-75.817211)" />
      <path
         style="opacity:1;fill:#000000;fill-opacity:1;stroke:#000000;stroke-width:4.99363661;stroke-linejoin:miter;stroke-miterlimit:4.9000001;stroke-dasharray:none;stroke-dashoffset:0;stroke-opacity:1"
         d="m 40.967653,158.45001 c 0.959279,-18.4948 1.446166,-20.26357 6.305904,-22.90821 3.228762,-1.75706 4.376296,-1.90579 6.663626,-0.86361 3.804124,1.73328 6.158805,5.69582 7.038313,11.84435 l 0.743077,5.19475 6.220767,1.11536 c 8.035402,1.44071 10.587312,3.64046 10.587312,9.12626 0,6.90453 -2.645207,9.10671 -12.072345,10.05045 -4.405919,0.44107 -12.112001,0.83215 -17.12463,0.86906 l -9.11387,0.0671 0.751846,-14.49552 z"
         id="path17790"
         inkscape:connector-curvature="0"
         transform="matrix(1.0656107,0,0,1.1195792,-44.42465,-75.817211)" />
      <path
         style="opacity:1;fill:#000000;fill-opacity:1;stroke:#000000;stroke-width:4.99363661;stroke-linejoin:miter;stroke-miterlimit:4.9000001;stroke-dasharray:none;stroke-dashoffset:0;stroke-opacity:1"
         d="m 88.484345,109.12108 c 0.40724,-14.335298 0.732598,-16.698321 2.581753,-18.75089 2.991464,-3.320534 6.378805,-4.374426 10.001222,-3.111646 3.81762,1.330831 6.27345,5.428652 7.23252,12.068267 l 0.73456,5.085339 5.95525,0.74406 c 7.88924,0.98569 10.45099,3.14919 10.60322,8.95484 0.0925,3.52669 -0.50384,5.16653 -2.66443,7.32713 -2.66517,2.66517 -3.46681,2.81125 -18.84681,3.43441 l -16.063247,0.65084 0.465962,-16.40235 z"
         id="path17792"
         inkscape:connector-curvature="0"
         transform="matrix(1.0656107,0,0,1.1195792,-44.42465,-75.817211)" />
      <path
         style="opacity:1;fill:#000000;fill-opacity:1;stroke:#000000;stroke-width:4.99363661;stroke-linejoin:miter;stroke-miterlimit:4.9000001;stroke-dasharray:none;stroke-dashoffset:0;stroke-opacity:1"
         d="m 135.02413,68.459111 c 0.0822,-15.45157 1.58528,-24.89234 4.31495,-27.102688 2.93296,-2.374968 8.45363,-2.505916 11.63724,-0.27603 2.44889,1.71527 4.60938,7.601837 4.61998,12.587783 0.005,2.321207 0.63513,2.975444 3.39847,3.528113 1.86583,0.373165 4.57483,0.678483 6.01999,0.678483 3.92455,0 7.95676,4.590165 7.95676,9.057763 0,8.255347 -5.16801,10.300523 -26.32515,10.417843 l -11.66991,0.06471 0.0477,-8.955979 z"
         id="path17794"
         inkscape:connector-curvature="0"
         transform="matrix(1.0656107,0,0,1.1195792,-44.42465,-75.817211)" />
      <path
         style="opacity:1;fill:#000000;fill-opacity:1;stroke:#000000;stroke-width:4.99363661;stroke-linejoin:miter;stroke-miterlimit:4.9000001;stroke-dasharray:none;stroke-dashoffset:0;stroke-opacity:1"
         d="m 182.89966,13.812842 0.38997,-16.9225993 3.04328,-2.6177189 c 7.0837,-6.0931428 14.53865,-1.6209181 16.30027,9.7785342 0.76924,4.9777549 2.0402,6.019281 7.37283,6.041868 6.03316,0.02556 9.64516,3.445964 9.64516,9.133557 0,3.447245 -0.64863,5.226418 -2.56005,7.022104 -2.24073,2.105057 -4.3734,2.530103 -17.09778,3.407638 -7.99575,0.551426 -15.20056,1.019833 -16.01069,1.040904 -1.19509,0.03108 -1.39939,-3.15404 -1.08299,-16.884287 z"
         id="path17796"
         inkscape:connector-curvature="0"
         transform="matrix(1.0656107,0,0,1.1195792,-44.42465,-75.817211)" />
      <path
         style="opacity:1;fill:#000000;fill-opacity:1;stroke:#000000;stroke-width:4.99363661;stroke-linejoin:miter;stroke-miterlimit:4.9000001;stroke-dasharray:none;stroke-dashoffset:0;stroke-opacity:1"
         d="M 89.047001,30.0382 C 87.987653,28.978852 88.202125,6.2052738 89.326321,0.37879009 91.916376,-13.044949 106.37518,-10.743908 108.25016,3.3904183 c 0.76207,5.7447677 1.80961,6.7191317 7.22369,6.7191317 7.70994,0 11.99404,5.631413 9.6613,12.699694 -1.83573,5.562313 -1.76253,5.542392 -27.13217,7.383607 -4.513184,0.327547 -8.543375,0.257954 -8.955979,-0.154651 z"
         id="path17798"
         inkscape:connector-curvature="0"
         transform="matrix(1.0656107,0,0,1.1195792,-44.42465,-75.817211)" />
      <path
         style="opacity:1;fill:#000000;fill-opacity:1;stroke:#000000;stroke-width:4.99363661;stroke-linejoin:miter;stroke-miterlimit:4.9000001;stroke-dasharray:none;stroke-dashoffset:0;stroke-opacity:1"
         d="m 40.960171,63.194679 c 0.413864,-8.001004 1.232428,-16.059299 1.81903,-17.907324 1.29434,-4.077675 4.829538,-6.153793 9.669716,-5.678739 4.650987,0.456484 7.680367,4.467762 8.435814,11.17007 0.620672,5.506583 2.610126,7.096086 8.881606,7.096086 1.671808,0 4.3268,1.012472 5.899982,2.249937 3.790605,2.98169 3.9673,9.368943 0.374722,13.545565 -2.442302,2.839346 -2.776126,2.899991 -19.159481,3.480689 l -16.67387,0.590995 0.752481,-14.547279 z"
         id="path17800"
         inkscape:connector-curvature="0"
         transform="matrix(1.0656107,0,0,1.1195792,-44.42465,-75.817211)" />
      <path
         style="opacity:1;fill:#000000;fill-opacity:1;stroke:#000000;stroke-width:4.99363661;stroke-linejoin:miter;stroke-miterlimit:4.9000001;stroke-dasharray:none;stroke-dashoffset:0;stroke-opacity:1"
         d="M -5.8834885,109.59299 C -5.2350406,92.269643 -4.2578526,89.149366 1.1645481,87.087773 7.4301804,84.705583 12.757384,89.849314 14.089408,99.567491 l 0.660743,4.820649 5.5631,0.72924 c 7.272867,0.95336 10.18829,2.91843 11.036308,7.43875 0.789925,4.21066 -1.549906,9.75299 -4.618879,10.94067 -1.066947,0.4129 -8.9758,1.0383 -17.5752306,1.38976 l -15.6353273,0.63903 0.5963894,-15.9326 z"
         id="path17802"
         inkscape:connector-curvature="0"
         transform="matrix(1.0656107,0,0,1.1195792,-44.42465,-75.817211)" />
      <path
         style="opacity:1;fill:#000000;fill-opacity:1;stroke:#000000;stroke-width:4.99363661;stroke-linejoin:miter;stroke-miterlimit:4.9000001;stroke-dasharray:none;stroke-dashoffset:0;stroke-opacity:1"
         d="M -5.3978697,30.0382 C -6.3872939,29.048776 -6.2166699,8.9950092 -5.1552269,1.5199517 -3.1097676,-12.884898 11.83818,-11.473978 14.019975,3.329878 c 0.864134,5.8632993 1.739416,6.739778 6.753812,6.763048 7.796409,0.03618 12.517157,5.532394 10.482924,12.204929 -1.484688,4.86996 -3.590156,6.072188 -11.71466,6.689102 -4.277983,0.324838 -11.4707582,0.863049 -15.983942,1.196024 -4.51318353,0.332976 -8.5433741,0.267824 -8.9559787,-0.144781 z"
         id="path17804"
         inkscape:connector-curvature="0"
         transform="matrix(1.0656107,0,0,1.1195792,-44.42465,-75.817211)" />
      <path
         style="opacity:1;fill:#000000;fill-opacity:1;stroke:#000000;stroke-width:4.99363661;stroke-linejoin:miter;stroke-miterlimit:4.9000001;stroke-dasharray:none;stroke-dashoffset:0;stroke-opacity:1"
         d="m 418.46716,442.34938 c 0.38933,-15.9626 0.48035,-16.5096 3.19983,-19.22907 5.38446,-5.38446 14.12383,-2.54078 15.5853,5.07126 1.96393,10.22907 1.4507,9.46761 6.91523,10.25997 9.06424,1.31432 11.01113,3.03762 11.03642,9.76897 0.0124,3.29168 -0.65659,5.0569 -2.61283,6.89469 -2.417,2.27066 -3.91792,2.51847 -18.57706,3.06719 l -15.94762,0.59695 0.40073,-16.42996 z"
         id="path17806"
         inkscape:connector-curvature="0"
         transform="matrix(1.0656107,0,0,1.1195792,-44.42465,-75.817211)" />
    </g>
  </g>
</svg>
